<?xml version="1.0" encoding="UTF-8" standalone="no"?>
<!-- Created with Inkscape (http://www.inkscape.org/) -->

<svg
   width="135.46666mm"
   height="135.46667mm"
   viewBox="0 0 135.46666 135.46667"
   version="1.1"
   id="svg1"
   xml:space="preserve"
   xmlns="http://www.w3.org/2000/svg"
   xmlns:svg="http://www.w3.org/2000/svg"><defs
     id="defs1"><style
       id="style2" /><style
       id="style2-8" /></defs><g
     id="layer1"
     transform="translate(-154.22827,-327.76564)"><path
       id="prefix__rect1065"
       opacity="1"
       fill="none"
       stroke-width="3.16799"
       d="M 258.28599,6.7091747 H 606.10131 V 344.35295 H 258.28599 Z"
       style="fill-opacity:1;stroke-linecap:square;stroke-linejoin:round;paint-order:stroke fill markers" /><g
       id="g14"
       transform="matrix(0.87423154,0,0,0.87423154,-26.033027,555.29591)"><path
         id="path4"
         style="fill:#ec332e;fill-opacity:1;stroke:none;stroke-width:0.264583"
         d="m 283.67157,-260.26318 -52.26244,30.17387 v 60.3467 c 8.70854,36.29074 26.0878,51.4708 52.26244,64.43455 26.17465,-12.96375 43.55339,-28.14381 52.26193,-64.43455 v -60.3467 z" /><path
         id="path5"
         style="fill:#a93c5f;fill-opacity:1;stroke:none;stroke-width:0.264583"
         d="m 283.67157,-260.26318 -52.26244,30.17387 v 60.3467 c 8.70854,36.29074 26.0878,51.4708 52.26244,64.43455 z" /><path
         style="fill:#0e0042;fill-opacity:1;stroke-width:0.264583"
         id="path6"
         d="M 322.70225,70.01943 283.67133,92.553947 244.6404,70.01943 l 0,-45.069035 39.03093,-22.5345167 39.03092,22.5345177 z"
         transform="matrix(0.6389209,0,0,0.6389209,102.42778,-230.25519)" /><path
         style="fill:#0e0042;fill-opacity:1;stroke-width:0.264583"
         id="path7"
         d="M 322.70225,70.01943 283.67133,92.553947 244.6404,70.01943 l 0,-45.069035 39.03093,-22.5345167 39.03092,22.5345177 z"
         transform="matrix(0.33474617,0,0,0.33474617,188.71343,-178.0948)" /><path
         style="fill:#0e0042;fill-opacity:1;stroke-width:0.264583"
         id="path8"
         d="M 322.70225,70.01943 283.67133,92.553947 244.6404,70.01943 l 0,-45.069035 39.03093,-22.5345167 39.03092,22.5345177 z"
         transform="matrix(0.33474617,0,0,0.33474617,188.71343,-163.0081)" /><path
         style="fill:#0e0042;fill-opacity:1;stroke-width:0.264583"
         id="path9"
         d="M 322.70225,70.01943 283.67133,92.553947 244.6404,70.01943 l 0,-45.069035 39.03093,-22.5345167 39.03092,22.5345177 z"
         transform="matrix(0.33474617,0,0,0.33474617,188.71343,-193.18149)" /><path
         style="fill:#ffa177;fill-opacity:1;stroke:none;stroke-width:0.264583"
         d="m 283.67156,-260.26318 44.49622,37.33882 7.76572,-7.16495 z"
         id="path10" /><path
         style="fill:#ee6866;fill-opacity:1;stroke:none;stroke-width:0.264583"
         d="m 335.9335,-169.74261 v -60.3467 l -7.76572,7.16495 z"
         id="path11" /><path
         id="path12"
         style="fill:#ee6866;fill-opacity:1;stroke:none;stroke-width:0.264583"
         d="m 283.67137,-260.2632 -52.26173,30.17368 v 60.34686 l 7.76546,-53.18149 z" /><path
         id="path13"
         style="fill:#ee6866;fill-opacity:1;stroke:none;stroke-width:0.264583"
         d="m 283.67137,-230.08952 -22.06051,12.73645 -4.07061,2.35039 v 4.96743 25.20574 l 13.06582,7.54368 v 37.71634 l 13.0653,7.54316 v -4.58147 l -9.2124,-5.62054 v -38.37353 l -12.84811,-7.11642 v -24.66735 l 22.06051,-12.73646 z" /><path
         id="path14"
         style="fill:#a93c5f;fill-opacity:1;stroke:none;stroke-width:0.264583"
         d="m 283.67137,-230.08952 v 4.96742 l 22.06,12.73646 v 24.66735 l -12.84811,7.11642 v 38.37353 l -9.2124,5.62054 v 4.58147 l 13.06581,-7.54316 v -37.71634 l 13.06531,-7.54368 v -25.20625 l 5.1e-4,5.1e-4 v -4.96743 h -5.1e-4 l -4.07061,-2.35039 z" /></g></g></svg>
