<?xml version="1.0" encoding="UTF-8" standalone="no"?>
<!-- Created with Inkscape (http://www.inkscape.org/) -->

<svg
   width="507.99994mm"
   height="285.75003mm"
   viewBox="0 0 507.99994 285.75003"
   version="1.1"
   id="svg1"
   xml:space="preserve"
   xmlns:xlink="http://www.w3.org/1999/xlink"
   xmlns="http://www.w3.org/2000/svg"
   xmlns:svg="http://www.w3.org/2000/svg"><defs
     id="defs1"><linearGradient
       id="linearGradient190"><stop
         style="stop-color:#ebdfff;stop-opacity:1;"
         offset="0"
         id="stop189" /><stop
         style="stop-color:#ebdfff;stop-opacity:1;"
         offset="1"
         id="stop190" /></linearGradient><linearGradient
       id="linearGradient185"><stop
         style="stop-color:#ebdfff;stop-opacity:1;"
         offset="0"
         id="stop185" /><stop
         style="stop-color:#ebdfff;stop-opacity:0;"
         offset="1"
         id="stop186" /></linearGradient><linearGradient
       id="linearGradient154"><stop
         style="stop-color:#1d307c;stop-opacity:1;"
         offset="0"
         id="stop154" /><stop
         style="stop-color:#1d307c;stop-opacity:0;"
         offset="1"
         id="stop155" /></linearGradient><linearGradient
       id="linearGradient136"><stop
         style="stop-color:#1d307c;stop-opacity:1;"
         offset="0"
         id="stop136" /><stop
         style="stop-color:#1d307c;stop-opacity:0;"
         offset="1"
         id="stop137" /></linearGradient><linearGradient
       id="linearGradient104"><stop
         style="stop-color:#ec332e;stop-opacity:1;"
         offset="0"
         id="stop104" /><stop
         style="stop-color:#a93c5f;stop-opacity:1;"
         offset="1"
         id="stop105" /></linearGradient><linearGradient
       id="linearGradient102"><stop
         style="stop-color:#2e43ec;stop-opacity:1;"
         offset="0"
         id="stop102" /><stop
         style="stop-color:#882897;stop-opacity:1;"
         offset="1"
         id="stop103" /></linearGradient><linearGradient
       id="prefix__linearGradient1545"><stop
         offset="0"
         id="prefix__stop1544"
         stop-color="#ff004f"
         stop-opacity="1"
         style="stop-color:#ffffff;stop-opacity:1" /><stop
         offset="1"
         id="prefix__stop1545"
         stop-color="#97355a"
         stop-opacity="1"
         style="stop-color:#cdcdcd;stop-opacity:1;" /></linearGradient><style
       id="style2" /><style
       id="style2-8" /><linearGradient
       xlink:href="#prefix__linearGradient1545"
       id="linearGradient122"
       gradientUnits="userSpaceOnUse"
       gradientTransform="matrix(0.67938941,-0.54047845,0.67938941,0.54047845,204.08222,101.44794)"
       x1="262.98303"
       y1="228.51295"
       x2="1.6879662"
       y2="541.70093" /><linearGradient
       xlink:href="#linearGradient102"
       id="linearGradient103"
       x1="512.37225"
       y1="195.3792"
       x2="464.95819"
       y2="282.45099"
       gradientUnits="userSpaceOnUse"
       gradientTransform="translate(-33.031894)" /><linearGradient
       xlink:href="#linearGradient104"
       id="linearGradient105"
       x1="397.68622"
       y1="184.46609"
       x2="338.51004"
       y2="283.46893"
       gradientUnits="userSpaceOnUse"
       gradientTransform="matrix(-1,0,0,1,1083.6539,2.40508e-5)" /><style
       id="style2-5">.cls-1{fill:#273184;}.cls-2{fill:#c7371b;}</style><linearGradient
       xlink:href="#linearGradient136"
       id="linearGradient137"
       x1="320.30933"
       y1="92.793953"
       x2="295.24142"
       y2="277.55902"
       gradientUnits="userSpaceOnUse" /><linearGradient
       xlink:href="#linearGradient154"
       id="linearGradient155"
       x1="452.54279"
       y1="278.97647"
       x2="321.44705"
       y2="283.69846"
       gradientUnits="userSpaceOnUse" /><linearGradient
       xlink:href="#linearGradient185"
       id="linearGradient186"
       x1="689.60852"
       y1="71.801262"
       x2="686.43018"
       y2="225.86949"
       gradientUnits="userSpaceOnUse" /><linearGradient
       xlink:href="#linearGradient190"
       id="linearGradient189"
       gradientUnits="userSpaceOnUse"
       x1="689.60852"
       y1="71.801262"
       x2="682.62744"
       y2="228.00562"
       gradientTransform="matrix(-1,0,0,1,1208.1601,36.775274)" /></defs><g
     id="layer1"
     transform="translate(-271.31094,-5.6249848)"><path
       style="opacity:1;fill:#1d307c;fill-opacity:1;stroke:none;stroke-width:1.211"
       d="m 271.31108,263.74307 -1.6e-4,27.63192 507.99996,2e-5 3e-5,-39.50511 H 271.31108 Z"
       id="path155" /><path
       d="M 271.3109,291.375 V 5.6249846 h 508 L 779.31087,291.375 H 568.76909 Z"
       id="path121"
       fill="url(#prefix__linearGradient1551)"
       stroke-width="2.9132"
       style="fill:url(#linearGradient122);fill-opacity:1;stroke-linecap:square;stroke-linejoin:round;paint-order:stroke fill markers" /><path
       id="path181"
       style="opacity:1;fill:url(#linearGradient186);fill-opacity:1;stroke-width:0.434565"
       d="m 700.44303,65.54587 -43.22733,24.95765 -3.36104,1.94045 -2.40915,1.390613 -31.03428,17.917767 -48.17897,27.81588 -5.2e-4,5.1e-4 v 15.35307 h 5.2e-4 l -10e-4,58.67032 79.2141,77.78288 h 97.99608 29.8695 l 1.5e-4,-180.29548 -29.8695,-17.244947 -48.99804,-28.288713 z" /><path
       id="path188"
       style="opacity:1;fill:url(#linearGradient189);fill-opacity:1;stroke-width:0.434565"
       d="m 507.71708,102.32114 43.22733,24.95765 3.36104,1.94045 2.40915,1.39062 31.03428,17.91776 48.17897,27.81588 5.2e-4,5.1e-4 v 15.35307 h -5.2e-4 l 10e-4,58.67033 -70.31312,41.0076 H 271.31095 l 1.3e-4,-27.63194 157.53794,-115.88827 29.8695,-17.24494 48.99804,-28.28872 z" /><path
       id="prefix__rect1065"
       opacity="1"
       fill="none"
       stroke-width="3.16799"
       d="M 258.28599,6.7091747 H 606.10131 V 344.35295 H 258.28599 Z"
       style="fill-opacity:1;stroke-linecap:square;stroke-linejoin:round;paint-order:stroke fill markers" /><path
       id="path189"
       style="opacity:1;fill:#e4d9f7;fill-opacity:1;stroke:none;stroke-width:1.211"
       d="m 507.71656,102.32114 -78.86754,45.53366 v 15.35306 l 78.86754,-45.53365 z" /><path
       id="path18"
       style="opacity:1;fill:url(#linearGradient103);fill-opacity:1;stroke-width:0.434565"
       d="M 303.53858,5.6249797 271.31109,24.231596 V 263.74307 l 47.86064,27.63191 h 2.27532 l 62.96928,-36.35334 32.05282,18.50533 30.91388,17.84801 h 121.38587 40.01616 v -54.85815 l -26.43921,-15.26419 -20.88865,3.29231 -16.17679,-9.33948 v -15.35255 l -0.60203,-0.34778 -15.57476,-8.9917 -20.88865,3.2923 -16.17679,-9.33948 v -15.35307 l -11.46441,-6.61872 -32.05231,-18.50584 -10e-4,-74.023392 L 337.07968,5.6249797 Z" /><path
       style="opacity:1;fill:#4057ff;fill-opacity:1;stroke:none;stroke-width:1.211"
       d="m 492.03848,184.4661 v 15.35262 l 16.17668,9.3396 v -15.35266 z"
       id="path79" /><path
       id="path26"
       style="opacity:1;fill:#5e7df2;fill-opacity:1;stroke:none;stroke-width:1.211"
       d="m 320.30933,5.6249797 v 5.6704553 l 128.2113,74.022871 V 69.965238 L 337.07989,5.6249797 Z M 448.52166,143.98863 v 15.35307 l 43.51673,25.12456 v -15.35307 z m 80.58216,46.52481 -20.88864,3.2923 37.06543,21.39973 v -15.35255 z m 53.24223,30.7392 -20.88865,3.29231 47.32786,27.32495 v -15.35307 z" /><path
       style="opacity:1;fill:#2e43ec;fill-opacity:1;stroke:none;stroke-width:1.211"
       d="m 508.21516,209.15828 v -15.35262 l 20.88885,-3.29245 v 15.35266 z"
       id="path84" /><path
       id="path107"
       style="opacity:1;fill:url(#linearGradient137);fill-opacity:1;stroke:none;stroke-width:1.211"
       d="M 303.53806,5.6249797 271.31109,24.231079 V 263.74307 l 47.86064,27.63191 65.2446,-36.35334 62.9667,36.35334 91.64021,3e-5 15.51255,-8.95604 C 476.33674,234.76441 398.32126,188.10631 320.30913,140.14683 V 5.6249797 Z" /><path
       style="opacity:1;fill:#4057ff;fill-opacity:1;stroke:none;stroke-width:1.211"
       d="m 545.28069,215.20545 v 15.35262 l 16.17668,9.3396 v -15.35266 z"
       id="path95" /><path
       style="opacity:1;fill:#2e43ec;fill-opacity:1;stroke:none;stroke-width:1.211"
       d="m 561.45737,239.89763 v -15.35262 l 20.88885,-3.29245 v 15.35266 z"
       id="path96" /><path
       id="path19"
       style="opacity:1;fill:url(#linearGradient105);fill-opacity:1;stroke-width:0.434565"
       d="m 730.31286,106.91133 48.99804,28.28872 V 291.37501 H 539.02324 l 31.02498,-17.91209 32.05231,-18.50533 10e-4,-74.0239 z" /><path
       id="path187"
       style="opacity:1;fill:#e4d9f7;fill-opacity:1;stroke:none;stroke-width:1.211"
       d="M 700.44355,65.545866 572.23226,139.56823 v 15.35306 L 700.44355,80.898936 Z" /><path
       id="path190"
       style="opacity:1;fill:#f6f0ff;fill-opacity:1;stroke:none;stroke-width:1.211"
       d="m 507.71708,102.32114 110.19743,63.62245 v 15.35306 L 507.71708,117.67421 Z" /><path
       id="path29"
       style="opacity:1;fill:#de3539;fill-opacity:1;stroke:none;stroke-width:1.211"
       d="m 730.31266,106.91133 v 15.35307 l -128.2113,74.02287 v -15.35306 z" /><path
       id="path28"
       style="opacity:1;fill:#ffa177;fill-opacity:1;stroke:none;stroke-width:1.211"
       d="m 602.10033,254.95759 v 15.35307 l -36.4846,21.06435 h -26.59217 l 31.02446,-17.91209 z" /><path
       id="path106"
       style="opacity:1;fill:#a93c5f;fill-opacity:1;stroke:none;stroke-width:1.211"
       d="m 730.31286,106.91133 48.99804,28.28872 v 156.17496 h -48.99804 z" /><path
       id="path135"
       style="opacity:1;fill:#ec332e;fill-opacity:1;stroke:none;stroke-width:1.211"
       d="m 730.31286,106.91133 48.99804,28.28872 v 15.35306 L 730.31286,122.2644 Z" /><path
       id="path134"
       style="opacity:1;fill:#2e43ec;fill-opacity:1;stroke:none;stroke-width:1.211"
       d="M 303.53806,5.6249797 271.31109,24.231079 V 39.584147 L 320.30913,11.295435 V 5.6249797 Z" /><path
       id="path153"
       style="opacity:1;fill:url(#linearGradient155);fill-opacity:1;stroke:none;stroke-width:1.211"
       d="m 384.41633,239.66858 -62.96928,36.35333 v 15.35307 l 62.96928,-36.35334 62.96928,36.35334 h 26.78131 c -29.97352,-17.13681 -59.8494,-34.44388 -89.75059,-51.7064 z" /><path
       id="rect155"
       style="opacity:1;fill:#de3539;fill-opacity:1;stroke:none;stroke-width:0.966373"
       d="m 625.49396,106.91133 -13.06778,22.50911 h 1.7295 v 4.63263 l 2.43756,4.22191 v 35.68081 h 17.80185 v -35.68081 l 2.43714,-4.22191 v -4.63263 h 2.25909 z" /><path
       id="path157"
       style="opacity:1;fill:#31349e;fill-opacity:1;stroke:none;stroke-width:0.493257"
       d="m 371.4073,132.72678 -6.66987,11.48922 h 0.88263 v 2.36472 l 1.24437,2.1549 v 26.79527 h 9.08627 v 11.75277 h 21.59713 v -17.49557 h 1.15858 v -4.60076 h -5.67924 v 4.60076 h -3.43855 v -4.60076 h -5.67872 v 4.60076 h -7.9592 v -21.05247 l 1.24385,-2.1549 V 144.216 h 0.88315 z" /><path
       id="rect159"
       style="opacity:1;fill:#3634a5;fill-opacity:1;stroke:none;stroke-width:1.211"
       d="m 416.06438,154.89085 -1.19579,7.93336 -5.4436,7.77317 h 1.35392 v 2.22312 l 1.51619,1.51619 h 0.22479 v 26.31984 h 7.08898 v -26.31984 h 0.22479 l 1.51619,-1.51619 v -2.22312 h 1.35392 l -5.4436,-7.77317 z" /><path
       id="rect161"
       style="opacity:1;fill:#f4f4f4;fill-opacity:1;stroke:none;stroke-width:1.0217"
       d="m 621.26079,144.33256 c -0.80745,0 -1.45734,0.91355 -1.45734,2.04794 v 2.27324 0.89814 2.04742 h 1.45734 1.45772 v -2.04742 -0.89814 -2.27324 c 0,-1.13439 -0.65026,-2.04794 -1.45772,-2.04794 z" /><path
       id="path162"
       style="opacity:1;fill:#483bd4;fill-opacity:1;stroke:none;stroke-width:1.211"
       d="m 389.49558,177.77369 c -1.13439,0 -2.04742,0.91355 -2.04742,2.04794 v 2.27324 0.89814 2.04742 h 2.04742 2.04794 v -2.04742 -0.89814 -2.27324 c 0,-1.13439 -0.91355,-2.04794 -2.04794,-2.04794 z" /><path
       style="opacity:1;fill:#3a35aa;fill-opacity:1;stroke:none;stroke-width:1.211"
       d="m 432.19364,209.15832 h 24.88684 v 14.1728 z"
       id="path163" /><path
       style="opacity:1;fill:#de3539;fill-opacity:1;stroke:none;stroke-width:1.211"
       d="M 624.96479,121.53672 V 90.137555 l 16.11858,4.31896 -15.11541,4.05016 v 23.027495 z"
       id="path168" /><path
       style="opacity:1;fill:#3d35ab;fill-opacity:1;stroke:none;stroke-width:0.934883"
       d="m 446.01772,212.33589 v -24.23992 l 12.44342,3.33421 -11.66898,3.12669 v 17.77705 z"
       id="path169" /><path
       style="opacity:1;fill:#31349e;fill-opacity:1;stroke:none;stroke-width:0.934883"
       d="m 395.33762,177.30729 v -24.23992 l 12.44342,3.33421 -11.66898,3.12669 v 17.77705 z"
       id="path170" /><path
       style="opacity:1;fill:#31349e;fill-opacity:1;stroke:none;stroke-width:0.934883"
       d="m 370.87813,144.84674 v -24.23992 l 12.44342,3.33422 -11.66898,3.12669 v 17.77704 z"
       id="path171" /><path
       id="path172"
       style="opacity:1;fill:#3d35ab;fill-opacity:1;stroke:none;stroke-width:1.211"
       d="m 455.03254,203.4454 c -1.13439,0 -2.04742,0.91355 -2.04742,2.04794 v 2.27324 0.89814 2.04742 h 2.04742 2.04794 v -2.04742 -0.89814 -2.27324 c 0,-1.13439 -0.91355,-2.04794 -2.04794,-2.04794 z" /><path
       id="path174"
       style="opacity:1;fill:#3434a4;fill-opacity:1;stroke:none;stroke-width:1.211"
       d="m 404.06544,185.73265 c -1.13439,0 -2.04742,0.91355 -2.04742,2.04794 v 2.27324 0.89814 2.04742 h 2.04742 2.04794 v -2.04742 -0.89814 -2.27324 c 0,-1.13439 -0.91355,-2.04794 -2.04794,-2.04794 z" /><path
       style="opacity:1;fill:#de3539;fill-opacity:1;stroke:none;stroke-width:1.211"
       d="M 653.53902,157.04476 V 125.6456 l 16.11858,4.31896 -15.11541,4.05016 v 23.02749 z"
       id="path176" /><path
       id="path177"
       style="opacity:1;fill:#3935a7;fill-opacity:1;stroke:none;stroke-width:1.211"
       d="m 427.8297,181.84368 -3.51296,8.63203 -6.15053,4.69171 h 4.19199 v 13.77848 l 4.77904,0.1509 -0.002,0.0615 0.93224,-0.032 1.01751,0.032 -0.003,-0.0672 4.21938,-0.14521 v -13.77848 h 4.19199 l -6.15053,-4.69171 z" /><path
       id="path178"
       style="opacity:1;fill:#483bd4;fill-opacity:1;stroke:none;stroke-width:1.211"
       d="m 427.8297,199.81203 c -1.13439,0 -2.04742,0.91355 -2.04742,2.04794 v 2.27324 0.89814 2.04742 h 2.04742 2.04794 v -2.04742 -0.89814 -2.27324 c 0,-1.13439 -0.91355,-2.04794 -2.04794,-2.04794 z" /><path
       id="path179"
       style="opacity:1;fill:#3d35ab;fill-opacity:1;stroke:none;stroke-width:1.211"
       d="m 446.26299,203.4454 c -1.13439,0 -2.04742,0.91355 -2.04742,2.04794 v 2.27324 0.89814 2.04742 h 2.04742 2.04794 v -2.04742 -0.89814 -2.27324 c 0,-1.13439 -0.91355,-2.04794 -2.04794,-2.04794 z" /><path
       id="path180"
       style="opacity:1;fill:#3d35ab;fill-opacity:1;stroke:none;stroke-width:1.211"
       d="m 437.49345,203.4454 c -1.13439,0 -2.04742,0.91355 -2.04742,2.04794 v 2.27324 0.89814 2.04742 h 2.04742 2.04794 v -2.04742 -0.89814 -2.27324 c 0,-1.13439 -0.91355,-2.04794 -2.04794,-2.04794 z" /><path
       id="path186"
       style="opacity:1;fill:#f6f0ff;fill-opacity:1;stroke:none;stroke-width:1.211"
       d="m 700.44355,65.545866 78.86754,45.533664 v 15.35306 L 700.44355,80.898936 Z" /></g></svg>
