<?xml version="1.0" encoding="UTF-8" standalone="no"?>
<!-- Created with Inkscape (http://www.inkscape.org/) -->

<svg
   width="508.00113mm"
   height="285.75003mm"
   viewBox="0 0 508.00113 285.75003"
   version="1.1"
   id="svg1"
   xml:space="preserve"
   xmlns:xlink="http://www.w3.org/1999/xlink"
   xmlns="http://www.w3.org/2000/svg"
   xmlns:svg="http://www.w3.org/2000/svg"><defs
     id="defs1"><linearGradient
       id="linearGradient163"><stop
         style="stop-color:#6b2542;stop-opacity:0.51513392;"
         offset="0"
         id="stop164" /><stop
         style="stop-color:#774c9d;stop-opacity:0.58991599;"
         offset="1"
         id="stop163" /></linearGradient><linearGradient
       id="linearGradient161"><stop
         style="stop-color:#2e43ec;stop-opacity:0.31748244;"
         offset="0"
         id="stop161" /><stop
         style="stop-color:#2e43ec;stop-opacity:0.14724696;"
         offset="1"
         id="stop162" /></linearGradient><linearGradient
       id="linearGradient145"><stop
         style="stop-color:#f490b2;stop-opacity:0.32236472;"
         offset="0"
         id="stop145" /><stop
         style="stop-color:#ffffff;stop-opacity:0.13072397;"
         offset="1"
         id="stop146" /></linearGradient><linearGradient
       id="linearGradient129"><stop
         offset="0"
         id="stop128"
         stop-color="#ff004f"
         stop-opacity="1"
         style="stop-color:#394cff;stop-opacity:1;" /><stop
         offset="1"
         id="stop129"
         stop-color="#97355a"
         stop-opacity="1"
         style="stop-color:#e1296f;stop-opacity:0.64330566;" /></linearGradient><linearGradient
       id="linearGradient127"><stop
         offset="0"
         id="stop126"
         stop-color="#ff004f"
         stop-opacity="1"
         style="stop-color:#00ceff;stop-opacity:1;" /><stop
         offset="1"
         id="stop127"
         stop-color="#97355a"
         stop-opacity="1"
         style="stop-color:#97355a;stop-opacity:0.64330566;" /></linearGradient><linearGradient
       id="prefix__linearGradient1545"><stop
         offset="0"
         id="prefix__stop1544"
         stop-color="#ff004f"
         stop-opacity="1"
         style="stop-color:#ffffff;stop-opacity:1" /><stop
         offset="1"
         id="prefix__stop1545"
         stop-color="#97355a"
         stop-opacity="1" /></linearGradient><style
       id="style2" /><style
       id="style2-8" /><linearGradient
       xlink:href="#prefix__linearGradient1545"
       id="linearGradient122"
       gradientUnits="userSpaceOnUse"
       gradientTransform="matrix(0.67938941,-0.54047845,0.67938941,0.54047845,204.08228,101.44793)"
       x1="292.46487"
       y1="191.03833"
       x2="-188.80962"
       y2="696.86218" /><linearGradient
       xlink:href="#linearGradient127"
       id="linearGradient124"
       gradientUnits="userSpaceOnUse"
       gradientTransform="matrix(-0.67938935,-0.39021423,-0.67938935,0.39021423,855.19281,220.88571)"
       x1="426.01801"
       y1="372.39963"
       x2="92.766998"
       y2="174.82899" /><linearGradient
       xlink:href="#linearGradient129"
       id="linearGradient128"
       gradientUnits="userSpaceOnUse"
       gradientTransform="matrix(-0.67938935,-0.5488369,-0.67938935,0.5488369,829.6614,107.61511)"
       x1="-52.878132"
       y1="281.93881"
       x2="50.345692"
       y2="144.12915" /><linearGradient
       xlink:href="#linearGradient145"
       id="linearGradient146"
       x1="309.80249"
       y1="-230.08945"
       x2="314.99893"
       y2="-147.44553"
       gradientUnits="userSpaceOnUse"
       gradientTransform="matrix(1.6251767,0,0,1.6251767,-189.70543,453.8591)" /><linearGradient
       xlink:href="#linearGradient161"
       id="linearGradient162"
       x1="538.91345"
       y1="83.661743"
       x2="520.74188"
       y2="136.1769"
       gradientUnits="userSpaceOnUse"
       gradientTransform="matrix(0.93537836,0,0,0.93537836,189.83267,3.7880137)" /><linearGradient
       xlink:href="#linearGradient163"
       id="linearGradient164"
       x1="534.11084"
       y1="91.182457"
       x2="524.09363"
       y2="117.20806"
       gradientUnits="userSpaceOnUse"
       gradientTransform="matrix(0.93537836,0,0,0.93537836,189.83267,3.7880137)" /><linearGradient
       xlink:href="#linearGradient163"
       id="linearGradient165"
       gradientUnits="userSpaceOnUse"
       gradientTransform="matrix(2.0401609,0,0,2.0401609,-363.85438,-146.42233)"
       x1="534.11084"
       y1="91.182457"
       x2="524.09363"
       y2="117.20806" /><linearGradient
       xlink:href="#linearGradient161"
       id="linearGradient166"
       gradientUnits="userSpaceOnUse"
       gradientTransform="matrix(2.0401609,0,0,2.0401609,-363.85438,-146.42233)"
       x1="538.91345"
       y1="83.661743"
       x2="520.74188"
       y2="136.1769" /></defs><g
     id="layer1"
     transform="translate(-271.30981,-5.6249848)"><path
       d="M 271.31096,291.37499 V 5.6249847 h 508 l -3e-5,285.7500053 H 568.76915 Z"
       id="path121"
       fill="url(#prefix__linearGradient1551)"
       stroke-width="2.9132"
       style="fill:url(#linearGradient122);fill-opacity:1;stroke-linecap:square;stroke-linejoin:round;paint-order:stroke fill markers" /><path
       id="path164"
       style="opacity:0.234598;fill:url(#linearGradient166);fill-opacity:1;stroke:none;stroke-width:0.202671"
       d="m 715.59941,12.704473 -40.03316,23.113216 v 46.225708 c 6.67075,27.798773 19.9833,39.426743 40.03316,49.357073 20.04981,-9.93033 33.36199,-21.5583 40.03274,-49.357073 V 35.817689 Z" /><path
       id="prefix__rect1065"
       opacity="1"
       fill="none"
       stroke-width="3.16799"
       d="M 271.31095,6.7091747 H 619.12627 V 344.35295 H 271.31095 Z"
       style="fill-opacity:1;stroke-linecap:square;stroke-linejoin:round;paint-order:stroke fill markers" /><path
       d="m 779.3109,291.37498 v -72.64181 l -334.09229,-89.7728 -173.90764,-5.5439 v 167.95854 z"
       id="path127"
       fill="url(#prefix__linearGradient1551)"
       stroke-width="2.93564"
       style="fill:url(#linearGradient128);fill-opacity:1;stroke-linecap:square;stroke-linejoin:round;paint-order:stroke fill markers" /><path
       d="m 779.31093,291.37499 v -136.8375 l -102.98038,33.68473 -281.95377,34.73403 -123.06582,44.12318 10e-6,24.29555 z"
       id="path124"
       fill="url(#prefix__linearGradient1551)"
       stroke-width="2.47533"
       style="fill:url(#linearGradient124);fill-opacity:1;stroke-linecap:square;stroke-linejoin:round;paint-order:stroke fill markers" /><path
       style="opacity:1;fill:#546eea;fill-opacity:1;stroke:none;stroke-width:0.342974"
       d="m 271.31094,279.22721 123.06584,-56.27096 -1.35704,-1.4812 -121.7088,45.60438 z"
       id="path142" /><path
       id="path131"
       style="opacity:0.896105;fill:url(#linearGradient146);fill-opacity:1;stroke:none;stroke-width:0.429994"
       d="M 271.31098,30.885476 V 282.7149 c 42.53843,-21.06838 70.78194,-45.73865 84.93486,-104.71751 V 79.923351 Z" /><path
       id="path136"
       style="opacity:0.896105;fill:#6d2c4d;fill-opacity:0.499558;stroke-width:0.143939"
       d="M 271.31046,79.923127 V 239.29383 l 21.23357,-12.25974 v -24.51876 -24.51798 -12.259 l 21.23361,-12.25974 v -49.03673 z" /><path
       style="opacity:0.365548;fill:#ff4db9;fill-opacity:1;stroke:none;stroke-width:0.429994"
       d="M 271.31096,30.885476 343.62517,91.56765 356.24584,79.923351 Z"
       id="path137" /><path
       style="opacity:0.421901;fill:#ee66a6;fill-opacity:1;stroke:none;stroke-width:0.429994"
       d="M 356.24584,177.99739 V 79.923351 L 343.62517,91.56765 Z"
       id="path138" /><path
       id="path141"
       style="opacity:0.896105;fill:#ed4aa9;fill-opacity:0.636347;stroke:none;stroke-width:0.429994"
       d="m 271.31065,79.92286 v 8.072946 l 35.85141,20.698974 v 40.08881 l -20.88046,11.56543 v 62.36379 l -14.97177,9.13435 v 7.44572 l 21.23424,-12.25899 v -61.29572 l 21.23342,-12.25981 v -40.96461 l 8.5e-4,8.4e-4 v -8.07296 h -8.5e-4 l -6.61543,-3.81979 z" /><path
       style="opacity:1;fill:#ae94ba;fill-opacity:0.439895;stroke:none;stroke-width:0.342974"
       d="m 393.01974,221.47505 1.35704,1.4812 307.87559,-14.43605 -28.30203,-22.34197 z"
       id="path143" /><path
       style="opacity:1;fill:#cd3d8a;fill-opacity:0.586798;stroke:none;stroke-width:0.342974"
       d="m 673.95034,186.17823 105.36056,-34.15001 3e-5,14.80136 -77.05856,41.69062 z"
       id="path144" /><path
       id="path165"
       style="opacity:0.234598;fill:url(#linearGradient165);fill-opacity:1;stroke-width:0.0692694"
       d="m 715.59902,33.704641 v 3.69e-4 l -20.43653,11.799049 v 23.598434 l 10.21844,5.89991 v 5.899519 11.799038 11.79943 l 10.21809,5.8995 3.9e-4,3.6e-4 v -3.6e-4 l 10.2181,-5.8995 V 92.70096 80.901922 75.002403 l 10.21844,-5.89991 V 45.504059 L 715.59941,33.70501 Z" /><path
       id="path150"
       style="fill:url(#linearGradient162);fill-opacity:1;stroke:none;stroke-width:0.092921"
       d="m 684.74351,76.744903 -18.3545,10.597 v 21.193687 c 3.05842,12.74526 9.16199,18.07648 18.3545,22.62936 9.19249,-4.55288 15.2959,-9.8841 18.35432,-22.62936 V 87.341903 Z" /><path
       id="path147"
       style="opacity:0.896105;fill:url(#linearGradient164);fill-opacity:1;stroke-width:0.0317588"
       d="m 684.74334,86.373112 v 1.67e-4 l -9.36983,5.409666 v 10.819465 l 4.68498,2.705 v 2.70483 5.40966 5.40983 l 4.68483,2.70481 1.8e-4,1.8e-4 v -1.8e-4 l 4.68482,-2.70481 v -5.40983 -5.40966 -2.70483 l 4.68498,-2.705 V 91.782945 l -9.3698,-5.409666 z" /></g></svg>
